<svg fill="none" height="24" viewBox="0 0 24 24" width="24" xmlns="http://www.w3.org/2000/svg"><path d="m5.5 8c1.38071 0 2.5-1.11929 2.5-2.5s-1.11929-2.5-2.5-2.5-2.5 1.11929-2.5 2.5 1.11929 2.5 2.5 2.5zm0 0v8m0-8c0 2.2091 1.79086 4 4 4h6.5m-10.5 4c-1.38071 0-2.5 1.1193-2.5 2.5s1.11929 2.5 2.5 2.5 2.5-1.1193 2.5-2.5-1.11929-2.5-2.5-2.5zm10.5-4c0 1.3807 1.1193 2.5 2.5 2.5s2.5-1.1193 2.5-2.5-1.1193-2.5-2.5-2.5-2.5 1.1193-2.5 2.5z" stroke="#000" stroke-linecap="round" stroke-linejoin="round" stroke-width="2"/></svg>