<svg fill="none" height="24" viewBox="0 0 24 24" width="24" xmlns="http://www.w3.org/2000/svg"><path d="m5.5 8c1.38071 0 2.5-1.11929 2.5-2.5s-1.11929-2.5-2.5-2.5-2.5 1.11929-2.5 2.5 1.11929 2.5 2.5 2.5zm0 0v8m0 0c-1.38071 0-2.5 1.1193-2.5 2.5s1.11929 2.5 2.5 2.5 2.5-1.1193 2.5-2.5-1.11929-2.5-2.5-2.5zm13 0v-7.3c0-1.1201 0-1.68016-.218-2.10798-.1917-.37633-.4977-.68229-.874-.87403-.4278-.21799-.9879-.21799-2.108-.21799h-3.3m6.5 10.5c1.3807 0 2.5 1.1193 2.5 2.5s-1.1193 2.5-2.5 2.5-2.5-1.1193-2.5-2.5 1.1193-2.5 2.5-2.5zm-6.5-10.5 2.5 2.5m-2.5-2.5 2.5-2.5" stroke="#000" stroke-linecap="round" stroke-linejoin="round" stroke-width="2"/></svg>